<svg width="64" height="64" viewBox="0 0 64 64" fill="none" xmlns="http://www.w3.org/2000/svg">
<circle cx="32" cy="32" r="32" fill="#F5F5F5"/>
<path d="M38.1866 45.3334H25.8133C24.4655 45.2844 23.2101 44.6361 22.3898 43.5656C21.5695 42.4951 21.2701 41.1142 21.5733 39.8001L21.8933 38.2801C22.2613 36.2225 24.0301 34.7104 26.12 34.6668H37.88C39.9698 34.7104 41.7386 36.2225 42.1066 38.2801L42.4266 39.8001C42.7299 41.1142 42.4305 42.4951 41.6102 43.5656C40.7899 44.6361 39.5344 45.2844 38.1866 45.3334Z" fill="#172B4D"/>
<path d="M32.6666 32.0001H31.3333C28.3878 32.0001 26 29.6123 26 26.6668V23.1468C25.9964 21.9575 26.4673 20.8159 27.3082 19.975C28.1491 19.1341 29.2907 18.6632 30.48 18.6668H33.52C34.7092 18.6632 35.8508 19.1341 36.6917 19.975C37.5327 20.8159 38.0035 21.9575 38 23.1468V26.6668C38 28.0813 37.4381 29.4378 36.4379 30.438C35.4377 31.4382 34.0811 32.0001 32.6666 32.0001Z" fill="#172B4D"/>
</svg>
