<svg width="24" height="24" viewBox="0 0 24 24" fill="none" xmlns="http://www.w3.org/2000/svg">
<path fill-rule="evenodd" clip-rule="evenodd" d="M2.70344 15.1566L1.94344 20.4366C1.88237 20.8813 2.0337 21.3289 2.35212 21.6454C2.67053 21.9618 3.11907 22.1104 3.56343 22.0466L8.84344 21.2866C9.55914 21.1879 10.2229 20.8578 10.7334 20.3466L20.4734 10.5966C21.7732 9.34119 22.2945 7.48218 21.8369 5.73403C21.3793 3.98588 20.0141 2.62066 18.266 2.16308C16.5178 1.7055 14.6588 2.22678 13.4034 3.52656L3.64343 13.2666C3.13223 13.7771 2.80211 14.4409 2.70344 15.1566ZM13.2934 11.7666C13.0006 12.059 12.5263 12.059 12.2334 11.7666C11.941 11.4737 11.941 10.9994 12.2334 10.7066L16.4434 6.49656C16.7389 6.22121 17.1994 6.22933 17.4851 6.51494C17.7707 6.80056 17.7788 7.26105 17.5034 7.55656L13.2934 11.7666Z" fill="#172B4D"/>
</svg>
