<svg width="32" height="32" viewBox="0 0 32 32" fill="none" xmlns="http://www.w3.org/2000/svg">
<path d="M20.0972 2.66675H11.9172C4.4425 2.66675 2.6665 4.44408 2.6665 11.9028V20.0841C2.6665 27.5561 4.4305 29.3334 11.9025 29.3334H20.0838C27.5558 29.3334 29.3332 27.5694 29.3332 20.0974V11.9174C29.3332 4.44275 27.5692 2.66675 20.0972 2.66675ZM24.1945 21.6934H22.2492C21.5132 21.6934 21.2918 21.0974 19.9718 19.7774C18.8198 18.6668 18.3332 18.5281 18.0412 18.5281C17.6385 18.5281 17.5278 18.6388 17.5278 19.1948V20.9441C17.5278 21.4174 17.3745 21.6948 16.1385 21.6948C14.939 21.6141 13.7757 21.2497 12.7446 20.6315C11.7135 20.0132 10.8441 19.1589 10.2078 18.1388C8.6974 16.2587 7.64643 14.0523 7.1385 11.6947C7.1385 11.4028 7.24917 11.1388 7.80517 11.1388H9.75051C10.2505 11.1388 10.4305 11.3614 10.6252 11.8748C11.5692 14.6534 13.1798 17.0694 13.8332 17.0694C14.0838 17.0694 14.1932 16.9588 14.1932 16.3334V13.4721C14.1105 12.1667 13.4172 12.0561 13.4172 11.5841C13.4261 11.4596 13.4831 11.3435 13.5762 11.2603C13.6693 11.1772 13.7911 11.1336 13.9158 11.1388H16.9718C17.3892 11.1388 17.5278 11.3468 17.5278 11.8468V15.7081C17.5278 16.1254 17.7078 16.2641 17.8332 16.2641C18.0838 16.2641 18.2772 16.1254 18.7358 15.6668C19.721 14.4653 20.5259 13.1269 21.1252 11.6934C21.1864 11.5212 21.3023 11.3738 21.4552 11.2737C21.6081 11.1735 21.7895 11.1261 21.9718 11.1388H23.9172C24.4998 11.1388 24.6238 11.4307 24.4998 11.8468C23.7925 13.4313 22.9173 14.9355 21.8892 16.3334C21.6798 16.6534 21.5958 16.8201 21.8892 17.1948C22.0825 17.4868 22.7638 18.0561 23.2225 18.5974C23.889 19.2623 24.4426 20.0315 24.8612 20.8748C25.0278 21.4161 24.7492 21.6934 24.1945 21.6934Z" fill="#172B4D"/>
</svg>
